<svg width="146" height="146" viewBox="0 0 146 146" fill="none" xmlns="http://www.w3.org/2000/svg">
<rect width="146" height="146" rx="73" fill="#086B5A"/>
<path d="M95.685 57.595C94.515 39.46 87.17 21.78 73.39 8C59.48 21.91 51.81 39.59 50.315 57.595C58.635 62.015 66.305 67.735 73 74.69C79.695 67.8 87.365 62.08 95.685 57.595ZM73.325 28.735C77.42 35.43 80.28 42.905 81.775 50.705C78.72 52.655 75.86 54.8 73.065 57.075C70.335 54.865 67.41 52.72 64.42 50.77C66.045 42.97 69.035 35.495 73.325 28.735ZM73 95.425C67.67 87.3 60.91 80.215 53.11 74.625C52.265 74.04 51.355 73.585 50.51 72.935C51.355 73.52 52.265 74.04 53.045 74.56C40.37 65.395 24.835 60 8 60C8 94.58 29.84 123.83 60.195 134.685C64.29 136.18 68.58 137.285 73 138C77.42 137.22 81.645 136.115 85.805 134.685C116.16 123.83 138 94.58 138 60C110.83 60 86.975 74.105 73 95.425ZM81.58 122.4C78.72 123.375 75.86 124.155 72.935 124.805C70.075 124.22 67.28 123.44 64.615 122.465C43.23 114.795 27.565 96.53 22.69 74.69C29.84 76.38 36.665 79.305 42.97 83.335L42.84 83.4C43.685 83.985 44.53 84.57 45.375 85.025L45.83 85.285C52.265 89.965 57.79 95.75 62.145 102.51L73 119.15L83.855 102.575C88.34 95.75 93.93 89.9 100.3 85.285L100.755 84.96C101.34 84.635 101.925 84.245 102.51 83.855L102.445 83.725C108.815 79.5 115.9 76.38 123.31 74.625C118.435 96.53 102.835 114.795 81.58 122.4ZM53.435 74.82C53.305 74.755 53.175 74.625 53.11 74.56C53.11 74.56 53.175 74.56 53.175 74.625C53.24 74.69 53.305 74.755 53.435 74.82Z" fill="white"/>
</svg>
